<svg width="1440" height="6189" viewBox="0 0 1440 6189" fill="none" xmlns="http://www.w3.org/2000/svg">
<g id="Recorrido bot&#195;&#161;nico / diagonales, entradas y salidas" clip-path="url(#clip0_39_1913)">
<path id="Vector" d="M1535 115C1145 210 1368 480 1530 705" stroke="#6F7D49" stroke-width="2" stroke-linecap="round"/>
<g id="Group">
<path id="Vector_2" d="M1442.66 128.405C1418.2 152.742 1397.43 147.895 1380.33 113.866C1409.93 90.7287 1430.71 95.5751 1442.66 128.405Z" fill="#173D32"/>
<path id="Vector_3" d="M1442.66 128.405L1385.08 114.973M1420.1 123.143L1404.31 134.481M1406.45 119.958L1398.26 106.782" stroke="#F6F3E8" stroke-width="0.9"/>
</g>
<path id="Vector_4" d="M1411.23 161.159L1402.78 177.732" stroke="#6F7D49" stroke-width="1.1"/>
<g id="Group_2">
<path id="Vector_5" d="M1402.78 177.732C1414.83 197.794 1408.26 210.684 1383.07 216.403C1372.65 193.149 1379.22 180.259 1402.78 177.732Z" fill="#6F7D49"/>
<path id="Vector_6" d="M1402.78 177.732L1384.57 213.457M1395.65 191.727L1400.54 203.968M1391.33 200.198L1381.32 203.447" stroke="#F6F3E8" stroke-width="0.9"/>
</g>
<path id="Vector_7" d="M1386.24 177.32L1367.66 178.312" stroke="#6F7D49" stroke-width="1.1"/>
<g id="Group_3">
<path id="Vector_8" d="M1367.66 178.312C1356.34 198.789 1341.89 199.561 1324.32 180.628C1339.22 159.96 1353.67 159.188 1367.66 178.312Z" fill="#6F7D49"/>
<path id="Vector_9" d="M1367.66 178.312L1327.62 180.452M1351.97 179.15L1343.83 189.521M1342.48 179.658L1334.65 172.624" stroke="#F6F3E8" stroke-width="0.9"/>
</g>
<path id="Vector_10" d="M1351.11 210.225L1349.93 221.612" stroke="#6F7D49" stroke-width="1.1"/>
<g id="Group_4">
<path id="Vector_11" d="M1349.93 221.612C1361.29 230.462 1360.37 239.319 1347.18 248.181C1336.05 237.138 1336.96 228.281 1349.93 221.612Z" fill="#6F7D49"/>
<path id="Vector_12" d="M1349.93 221.612L1347.39 246.157M1348.94 231.227L1354.46 237.171M1348.33 237.047L1343.31 241.13" stroke="#F6F3E8" stroke-width="0.9"/>
</g>
<path id="Vector_13" d="M1337.69 229.552L1321.04 237.857" stroke="#6F7D49" stroke-width="1.1"/>
<g id="Group_5">
<path id="Vector_14" d="M1321.04 237.857C1318.8 261.149 1305.86 267.609 1282.2 257.235C1287.65 232.343 1300.59 225.883 1321.04 237.857Z" fill="#6F7D49"/>
<path id="Vector_15" d="M1321.04 237.857L1285.16 255.758M1306.99 244.87L1303.65 257.623M1298.48 249.114L1288.5 245.778" stroke="#F6F3E8" stroke-width="0.9"/>
</g>
<path id="Vector_16" d="M1322.32 267.775L1331.53 293.608" stroke="#6F7D49" stroke-width="1.1"/>
<g id="Group_6">
<path id="Vector_17" d="M1331.53 293.608C1365.23 300.997 1372.4 321.089 1353.04 353.883C1317.57 341.518 1310.4 321.426 1331.53 293.608Z" fill="#173D32"/>
<path id="Vector_18" d="M1331.53 293.608L1351.4 349.29M1339.32 315.421L1357.4 322.56M1344.03 328.625L1337.38 342.644" stroke="#F6F3E8" stroke-width="0.9"/>
</g>
<path id="Vector_19" d="M1318.7 289.693L1311.57 298.649" stroke="#6F7D49" stroke-width="1.1"/>
<g id="Group_7">
<path id="Vector_20" d="M1311.57 298.649C1316.37 312.226 1310.82 319.192 1294.93 319.548C1291.51 304.247 1297.05 297.28 1311.57 298.649Z" fill="#6F7D49"/>
<path id="Vector_21" d="M1311.57 298.649L1296.2 317.956M1305.55 306.213L1307 314.195M1301.9 310.79L1295.47 311.521" stroke="#F6F3E8" stroke-width="0.9"/>
</g>
<path id="Vector_22" d="M1319.82 332.17L1331.98 346.246" stroke="#6F7D49" stroke-width="1.1"/>
<g id="Group_8">
<path id="Vector_23" d="M1331.98 346.246C1355.1 342.655 1364.56 353.603 1360.36 379.089C1334.9 379.969 1325.44 369.021 1331.98 346.246Z" fill="#B96E80"/>
<path id="Vector_24" d="M1331.98 346.246L1358.2 376.586M1342.25 358.132L1355.44 358.213M1348.47 365.326L1347.7 375.822" stroke="#F6F3E8" stroke-width="0.9"/>
</g>
<path id="Vector_25" d="M1324.25 356.103L1317.86 373.576" stroke="#6F7D49" stroke-width="1.1"/>
<g id="Group_9">
<path id="Vector_26" d="M1317.86 373.576C1332.25 392.034 1327.28 405.624 1302.97 414.348C1289.81 392.525 1294.78 378.934 1317.86 373.576Z" fill="#6F7D49"/>
<path id="Vector_27" d="M1317.86 373.576L1304.1 411.242M1312.47 388.332L1318.81 399.89M1309.21 397.263L1299.67 401.699" stroke="#F6F3E8" stroke-width="0.9"/>
</g>
<path id="Vector_28" d="M1338.59 401.771L1347.9 408.436" stroke="#6F7D49" stroke-width="1.1"/>
<g id="Group_10">
<path id="Vector_29" d="M1347.9 408.436C1361.22 402.951 1368.46 408.135 1369.62 423.987C1354.51 428.189 1347.27 423.005 1347.9 408.436Z" fill="#6F7D49"/>
<path id="Vector_30" d="M1347.9 408.436L1367.97 422.802M1355.76 414.064L1363.66 412.21M1360.52 417.47L1361.58 423.86" stroke="#F6F3E8" stroke-width="0.9"/>
</g>
<path id="Vector_31" d="M1349.3 427.141L1345.12 454.249" stroke="#6F7D49" stroke-width="1.1"/>
<g id="Group_11">
<path id="Vector_32" d="M1345.12 454.249C1371.26 476.776 1368.01 497.86 1335.38 517.5C1310.05 489.752 1313.3 468.669 1345.12 454.249Z" fill="#173D32"/>
<path id="Vector_33" d="M1345.13 454.249L1336.12 512.681M1341.6 477.14L1354.11 492.018M1339.46 490.995L1326.95 500.167" stroke="#F6F3E8" stroke-width="0.9"/>
</g>
<path id="Vector_34" d="M1373.62 474.936L1390.1 483.562" stroke="#6F7D49" stroke-width="1.1"/>
<g id="Group_12">
<path id="Vector_35" d="M1390.11 483.562C1410.29 471.733 1423.11 478.443 1428.56 503.692C1405.2 513.859 1392.38 507.15 1390.11 483.562Z" fill="#6F7D49"/>
<path id="Vector_36" d="M1390.1 483.562L1425.63 502.158M1404.02 490.847L1416.32 486.083M1412.45 495.256L1415.59 505.3" stroke="#F6F3E8" stroke-width="0.9"/>
</g>
<path id="Vector_37" d="M1388.85 501.169L1388.41 512.609" stroke="#6F7D49" stroke-width="1.1"/>
<g id="Group_13">
<path id="Vector_38" d="M1388.41 512.609C1400.32 520.703 1399.97 529.601 1387.38 539.301C1375.56 529.004 1375.9 520.106 1388.41 512.609Z" fill="#6F7D49"/>
<path id="Vector_39" d="M1388.41 512.609L1387.46 537.267M1388.04 522.269L1393.93 527.841M1387.81 528.116L1383.06 532.516" stroke="#F6F3E8" stroke-width="0.9"/>
</g>
<path id="Vector_40" d="M1419.88 550.026L1436.98 557.34" stroke="#6F7D49" stroke-width="1.1"/>
<g id="Group_14">
<path id="Vector_41" d="M1436.98 557.34C1456.19 543.972 1469.49 549.661 1476.89 574.407C1454.4 586.367 1441.09 580.678 1436.98 557.34Z" fill="#6F7D49"/>
<path id="Vector_42" d="M1436.98 557.34L1473.85 573.107M1451.43 563.517L1463.31 557.808M1460.17 567.255L1464.09 577.023" stroke="#F6F3E8" stroke-width="0.9"/>
</g>
<path id="Vector_43" d="M1437.85 576.546L1438.29 595.144" stroke="#6F7D49" stroke-width="1.1"/>
<g id="Group_15">
<path id="Vector_44" d="M1438.29 595.144C1458.42 607.073 1458.77 621.538 1439.32 638.539C1419.1 623.028 1418.76 608.563 1438.29 595.144Z" fill="#B96E80"/>
<path id="Vector_45" d="M1438.29 595.144L1439.24 635.233M1438.66 610.849L1448.79 619.293M1438.89 620.354L1431.63 627.97" stroke="#F6F3E8" stroke-width="0.9"/>
</g>
<path id="Vector_46" d="M-100 1455.34C388.8 1422.51 964.8 1426.16 1530 1676.22" stroke="#6F7D49" stroke-width="2" stroke-linecap="round"/>
<path id="Vector_47" d="M-8.10097 1449.71L13.8419 1462.42" stroke="#6F7D49" stroke-width="1.1"/>
<g id="Group_16">
<path id="Vector_48" d="M13.8419 1462.41C42.0265 1447.48 59.0932 1457.37 65.0419 1492.07C32.6312 1504.55 15.5645 1494.67 13.8419 1462.41Z" fill="#173D32"/>
<path id="Vector_49" d="M13.8419 1462.42L61.1409 1489.81M32.3714 1473.15L49.3894 1467.37M43.5866 1479.64L47.2802 1493.5" stroke="#F6F3E8" stroke-width="0.9"/>
</g>
<path id="Vector_50" d="M103.001 1444.54L117.025 1434.58" stroke="#6F7D49" stroke-width="1.1"/>
<g id="Group_17">
<path id="Vector_51" d="M117.025 1434.58C115.753 1412.98 126.66 1405.24 149.747 1411.35C148.318 1434.86 137.41 1442.61 117.025 1434.58Z" fill="#6F7D49"/>
<path id="Vector_52" d="M117.025 1434.58L147.254 1413.12M128.867 1426.17L130.101 1414.05M136.035 1421.08L145.627 1422.71" stroke="#F6F3E8" stroke-width="0.9"/>
</g>
<path id="Vector_53" d="M166.688 1442.51L181.314 1451.56" stroke="#6F7D49" stroke-width="1.1"/>
<g id="Group_18">
<path id="Vector_54" d="M181.314 1451.56C200.717 1442 212.093 1449.03 215.441 1472.68C193.221 1480.5 181.845 1473.47 181.314 1451.56Z" fill="#6F7D49"/>
<path id="Vector_55" d="M181.314 1451.56L212.841 1471.07M193.665 1459.21L205.317 1455.63M201.14 1463.83L203.371 1473.3" stroke="#F6F3E8" stroke-width="0.9"/>
</g>
<path id="Vector_56" d="M281.419 1440.84L290.256 1435.01" stroke="#6F7D49" stroke-width="1.1"/>
<g id="Group_19">
<path id="Vector_57" d="M290.256 1435.01C289.934 1421.7 296.807 1417.17 310.875 1421.42C309.495 1435.85 302.622 1440.38 290.256 1435.01Z" fill="#6F7D49"/>
<path id="Vector_58" d="M290.256 1435.01L309.304 1422.46M297.718 1430.09L298.735 1422.66M302.235 1427.12L308.099 1428.32" stroke="#F6F3E8" stroke-width="0.9"/>
</g>
<path id="Vector_59" d="M346.991 1441.13L361.266 1450.72" stroke="#6F7D49" stroke-width="1.1"/>
<g id="Group_20">
<path id="Vector_60" d="M361.266 1450.72C381.016 1441.89 392.118 1449.35 394.573 1473.11C372.074 1480.09 360.972 1472.63 361.266 1450.72Z" fill="#6F7D49"/>
<path id="Vector_61" d="M361.266 1450.72L392.036 1471.4M373.32 1458.82L385.098 1455.69M380.616 1463.73L382.488 1473.27" stroke="#F6F3E8" stroke-width="0.9"/>
</g>
<path id="Vector_62" d="M464.783 1444.16L486.535 1431.13" stroke="#6F7D49" stroke-width="1.1"/>
<g id="Group_21">
<path id="Vector_63" d="M486.535 1431.13C487.134 1399.23 504.052 1389.1 537.289 1400.72C532.5 1435.12 515.582 1445.25 486.535 1431.13Z" fill="#173D32"/>
<path id="Vector_64" d="M486.535 1431.13L533.422 1403.03M504.903 1420.12L508.103 1402.44M516.021 1413.46L529.935 1416.95" stroke="#F6F3E8" stroke-width="0.9"/>
</g>
<path id="Vector_65" d="M531.921 1447.44L540.425 1453.74" stroke="#6F7D49" stroke-width="1.1"/>
<g id="Group_22">
<path id="Vector_66" d="M540.425 1453.74C552.815 1448.87 559.43 1453.77 560.267 1468.45C546.239 1472.1 539.625 1467.2 540.425 1453.74Z" fill="#6F7D49"/>
<path id="Vector_67" d="M540.425 1453.74L558.755 1467.33M547.606 1459.06L554.935 1457.47M551.952 1462.28L552.833 1468.21" stroke="#F6F3E8" stroke-width="0.9"/>
</g>
<path id="Vector_68" d="M652.207 1456.4L667.393 1448.32" stroke="#6F7D49" stroke-width="1.1"/>
<g id="Group_23">
<path id="Vector_69" d="M667.393 1448.32C668.905 1426.74 680.717 1420.46 702.827 1429.48C698.391 1452.62 686.579 1458.9 667.393 1448.32Z" fill="#B96E80"/>
<path id="Vector_70" d="M667.393 1448.32L700.128 1430.92M680.217 1441.5L682.998 1429.64M687.979 1437.38L697.283 1440.22" stroke="#F6F3E8" stroke-width="0.9"/>
</g>
<path id="Vector_71" d="M720.591 1463.36L733.836 1474.33" stroke="#6F7D49" stroke-width="1.1"/>
<g id="Group_24">
<path id="Vector_72" d="M733.836 1474.33C754.369 1467.52 764.671 1476.05 764.742 1499.93C741.658 1504.63 731.356 1496.1 733.836 1474.33Z" fill="#6F7D49"/>
<path id="Vector_73" d="M733.836 1474.33L762.387 1497.98M745.021 1483.6L757.054 1481.65M751.791 1489.2L752.701 1498.89" stroke="#F6F3E8" stroke-width="0.9"/>
</g>
<path id="Vector_74" d="M842.804 1479.45L852.427 1475.04" stroke="#6F7D49" stroke-width="1.1"/>
<g id="Group_25">
<path id="Vector_75" d="M852.427 1475.04C854.14 1461.84 861.625 1458.41 874.88 1464.76C871.313 1478.81 863.828 1482.24 852.427 1475.04Z" fill="#6F7D49"/>
<path id="Vector_76" d="M852.427 1475.04L873.169 1465.54M860.553 1471.32L862.692 1464.13M865.471 1469.07L871.083 1471.15" stroke="#F6F3E8" stroke-width="0.9"/>
</g>
<path id="Vector_77" d="M912.115 1490.78L930.605 1508.13" stroke="#6F7D49" stroke-width="1.1"/>
<g id="Group_26">
<path id="Vector_78" d="M930.605 1508.13C961.441 1499.98 975.822 1513.47 973.748 1548.62C939.351 1553.43 924.97 1539.94 930.605 1508.13Z" fill="#173D32"/>
<path id="Vector_79" d="M930.605 1508.13L970.461 1545.54M946.219 1522.78L964.102 1521.02M955.669 1531.65L956.124 1545.99" stroke="#F6F3E8" stroke-width="0.9"/>
</g>
<path id="Vector_80" d="M1035.69 1515.22L1051.77 1509.12" stroke="#6F7D49" stroke-width="1.1"/>
<g id="Group_27">
<path id="Vector_81" d="M1051.77 1509.12C1055.98 1487.9 1068.48 1483.15 1089.29 1494.87C1081.98 1517.27 1069.47 1522.02 1051.77 1509.12Z" fill="#6F7D49"/>
<path id="Vector_82" d="M1051.77 1509.12L1086.43 1495.96M1065.35 1503.96L1069.6 1492.54M1073.57 1500.84L1082.44 1504.83" stroke="#F6F3E8" stroke-width="0.9"/>
</g>
<path id="Vector_83" d="M1105.61 1531.6L1112.8 1539.36" stroke="#6F7D49" stroke-width="1.1"/>
<g id="Group_28">
<path id="Vector_84" d="M1112.8 1539.36C1125.88 1536.85 1131.48 1542.89 1129.6 1557.47C1115.13 1558.47 1109.54 1552.44 1112.8 1539.36Z" fill="#6F7D49"/>
<path id="Vector_85" d="M1112.8 1539.36L1128.32 1556.09M1118.88 1545.91L1126.38 1545.69M1122.56 1549.88L1122.33 1555.86" stroke="#F6F3E8" stroke-width="0.9"/>
</g>
<path id="Vector_86" d="M1229.97 1565.6L1246.46 1560.7" stroke="#6F7D49" stroke-width="1.1"/>
<g id="Group_29">
<path id="Vector_87" d="M1246.46 1560.7C1252.22 1539.85 1265.05 1536.04 1284.93 1549.27C1275.99 1571.06 1263.17 1574.88 1246.46 1560.7Z" fill="#6F7D49"/>
<path id="Vector_88" d="M1246.46 1560.7L1282 1550.14M1260.38 1556.56L1265.46 1545.49M1268.81 1554.06L1277.36 1558.69" stroke="#F6F3E8" stroke-width="0.9"/>
</g>
<path id="Vector_89" d="M1300.18 1587.72L1310.88 1601.18" stroke="#6F7D49" stroke-width="1.1"/>
<g id="Group_30">
<path id="Vector_90" d="M1310.88 1601.18C1332.38 1598.74 1340.7 1609.21 1335.85 1632.6C1312.29 1632.44 1303.97 1621.97 1310.88 1601.18Z" fill="#B96E80"/>
<path id="Vector_91" d="M1310.88 1601.18L1333.95 1630.2M1319.92 1612.55L1332.09 1613.13M1325.39 1619.43L1324.28 1629.1" stroke="#F6F3E8" stroke-width="0.9"/>
</g>
<path id="Vector_92" d="M1424.77 1632.5L1449.58 1627.24" stroke="#6F7D49" stroke-width="1.1"/>
<path id="Vector_93" d="M1530 2266.22C1137.6 2456.22 446.4 2456.22 -100 2426.78" stroke="#6F7D49" stroke-width="2" stroke-linecap="round"/>
<path id="Vector_94" d="M1453.67 2299.41L1428.86 2294.18" stroke="#6F7D49" stroke-width="1.1"/>
<g id="Group_31">
<path id="Vector_95" d="M1428.86 2294.18C1406.74 2317.16 1387.44 2313.1 1370.96 2281.98C1397.86 2260.01 1417.16 2264.07 1428.86 2294.18Z" fill="#173D32"/>
<path id="Vector_96" d="M1428.86 2294.18L1375.38 2282.91M1407.91 2289.77L1393.54 2300.56M1395.23 2287.09L1387.39 2275.08" stroke="#F6F3E8" stroke-width="0.9"/>
</g>
<path id="Vector_97" d="M1355.37 2333.32L1344.35 2346.53" stroke="#6F7D49" stroke-width="1.1"/>
<g id="Group_32">
<path id="Vector_98" d="M1344.35 2346.53C1351.09 2367.08 1342.51 2377.35 1318.63 2377.34C1314.02 2354.24 1322.59 2343.96 1344.35 2346.53Z" fill="#6F7D49"/>
<path id="Vector_99" d="M1344.35 2346.53L1320.59 2374.99M1335.04 2357.68L1336.94 2369.72M1329.41 2364.42L1319.72 2365.3" stroke="#F6F3E8" stroke-width="0.9"/>
</g>
<path id="Vector_100" d="M1296.5 2350.02L1280.18 2344.58" stroke="#6F7D49" stroke-width="1.1"/>
<g id="Group_33">
<path id="Vector_101" d="M1280.18 2344.58C1263.5 2358.36 1250.81 2354.13 1242.11 2331.89C1261.93 2319.16 1274.62 2323.39 1280.18 2344.58Z" fill="#6F7D49"/>
<path id="Vector_102" d="M1280.18 2344.58L1245.01 2332.85M1266.4 2339.99L1255.89 2346.15M1258.06 2337.21L1253.71 2328.5" stroke="#F6F3E8" stroke-width="0.9"/>
</g>
<path id="Vector_103" d="M1186.61 2375.61L1179.09 2383.06" stroke="#6F7D49" stroke-width="1.1"/>
<g id="Group_34">
<path id="Vector_104" d="M1179.09 2383.06C1182.04 2396.04 1176.19 2401.84 1161.56 2400.46C1160.07 2386.04 1165.91 2380.24 1179.09 2383.06Z" fill="#6F7D49"/>
<path id="Vector_105" d="M1179.09 2383.06L1162.9 2399.13M1172.75 2389.36L1173.22 2396.84M1168.91 2393.17L1162.92 2393.14" stroke="#F6F3E8" stroke-width="0.9"/>
</g>
<path id="Vector_106" d="M1121.93 2387.87L1106.13 2381.08" stroke="#6F7D49" stroke-width="1.1"/>
<g id="Group_35">
<path id="Vector_107" d="M1106.13 2381.08C1088.35 2393.4 1076.06 2388.12 1069.26 2365.23C1090.08 2354.21 1102.37 2359.5 1106.13 2381.08Z" fill="#6F7D49"/>
<path id="Vector_108" d="M1106.13 2381.08L1072.07 2366.44M1092.79 2375.34L1081.79 2380.6M1084.71 2371.87L1081.11 2362.83" stroke="#F6F3E8" stroke-width="0.9"/>
</g>
<path id="Vector_109" d="M1003.02 2406.07L983.812 2422.62" stroke="#6F7D49" stroke-width="1.1"/>
<g id="Group_36">
<path id="Vector_110" d="M983.812 2422.62C988.662 2454.15 973.721 2467.02 938.99 2461.24C937.839 2426.53 952.78 2413.66 983.812 2422.62Z" fill="#173D32"/>
<path id="Vector_111" d="M983.812 2422.62L942.405 2458.3M967.591 2436.6L967.454 2454.57M957.772 2445.06L943.467 2444" stroke="#F6F3E8" stroke-width="0.9"/>
</g>
<path id="Vector_112" d="M933.985 2414.43L924.548 2409.64" stroke="#6F7D49" stroke-width="1.1"/>
<g id="Group_37">
<path id="Vector_113" d="M924.548 2409.64C913.145 2416.51 905.805 2412.79 902.527 2398.46C915.747 2392.51 923.087 2396.24 924.548 2409.64Z" fill="#6F7D49"/>
<path id="Vector_114" d="M924.548 2409.64L904.205 2399.31M916.578 2405.59L909.619 2408.39M911.755 2403.14L909.896 2397.45" stroke="#F6F3E8" stroke-width="0.9"/>
</g>
<path id="Vector_115" d="M808.626 2426.16L795.012 2436.67" stroke="#6F7D49" stroke-width="1.1"/>
<g id="Group_38">
<path id="Vector_116" d="M795.012 2436.67C797.146 2458.2 786.557 2466.37 763.245 2461.19C763.733 2437.64 774.322 2429.47 795.012 2436.67Z" fill="#B96E80"/>
<path id="Vector_117" d="M795.012 2436.67L765.665 2459.33M783.515 2445.55L782.767 2457.71M776.556 2450.92L766.907 2449.68" stroke="#F6F3E8" stroke-width="0.9"/>
</g>
<path id="Vector_118" d="M736.677 2431.14L721.742 2422.61" stroke="#6F7D49" stroke-width="1.1"/>
<g id="Group_39">
<path id="Vector_119" d="M721.742 2422.61C702.687 2432.86 691.071 2426.22 686.894 2402.71C708.825 2394.11 720.441 2400.74 721.742 2422.61Z" fill="#6F7D49"/>
<path id="Vector_120" d="M721.742 2422.61L689.549 2404.23M709.13 2415.41L697.611 2419.39M701.497 2411.05L698.935 2401.66" stroke="#F6F3E8" stroke-width="0.9"/>
</g>
<path id="Vector_121" d="M607.433 2437.34L598.791 2443.45" stroke="#6F7D49" stroke-width="1.1"/>
<g id="Group_40">
<path id="Vector_122" d="M598.791 2443.45C599.546 2456.74 592.825 2461.49 578.625 2457.7C579.534 2443.23 586.256 2438.48 598.791 2443.45Z" fill="#6F7D49"/>
<path id="Vector_123" d="M598.791 2443.45L580.162 2456.62M591.493 2448.61L590.718 2456.07M587.076 2451.73L581.175 2450.72" stroke="#F6F3E8" stroke-width="0.9"/>
</g>
<path id="Vector_124" d="M534.017 2439.46L512.498 2426.04" stroke="#6F7D49" stroke-width="1.1"/>
<g id="Group_41">
<path id="Vector_125" d="M512.498 2426.04C483.844 2440.05 467.107 2429.62 462.288 2394.74C495.087 2383.32 511.823 2393.75 512.498 2426.04Z" fill="#173D32"/>
<path id="Vector_126" d="M512.498 2426.04L466.113 2397.13M494.327 2414.72L477.13 2419.93M483.328 2407.86L480.087 2393.89" stroke="#F6F3E8" stroke-width="0.9"/>
</g>
<path id="Vector_127" d="M403.454 2441.05L389.089 2450.5" stroke="#6F7D49" stroke-width="1.1"/>
<g id="Group_42">
<path id="Vector_128" d="M389.09 2450.5C389.601 2472.13 378.429 2479.49 355.571 2472.57C357.826 2449.12 368.999 2441.77 389.09 2450.5Z" fill="#6F7D49"/>
<path id="Vector_129" d="M389.09 2450.5L358.125 2470.89M376.959 2458.49L375.3 2470.57M369.617 2463.33L360.088 2461.36" stroke="#F6F3E8" stroke-width="0.9"/>
</g>
<path id="Vector_130" d="M330.019 2440.83L321.212 2434.96" stroke="#6F7D49" stroke-width="1.1"/>
<g id="Group_43">
<path id="Vector_131" d="M321.212 2434.96C309.079 2440.44 302.229 2435.88 300.663 2421.27C314.492 2416.92 321.341 2421.48 321.212 2434.96Z" fill="#6F7D49"/>
<path id="Vector_132" d="M321.212 2434.96L302.228 2422.31M313.775 2430.01L306.534 2431.96M309.274 2427.01L308.099 2421.13" stroke="#F6F3E8" stroke-width="0.9"/>
</g>
<path id="Vector_133" d="M200.704 2438.74L186.096 2447.82" stroke="#6F7D49" stroke-width="1.1"/>
<g id="Group_44">
<path id="Vector_134" d="M186.096 2447.82C186.039 2469.45 174.677 2476.51 152.009 2469C154.879 2445.62 166.241 2438.56 186.096 2447.82Z" fill="#6F7D49"/>
<path id="Vector_135" d="M186.096 2447.82L154.606 2467.39M173.759 2455.49L171.783 2467.51M166.293 2460.13L156.818 2457.91" stroke="#F6F3E8" stroke-width="0.9"/>
</g>
<path id="Vector_136" d="M128.695 2436.72L114.618 2426.84" stroke="#6F7D49" stroke-width="1.1"/>
<g id="Group_45">
<path id="Vector_137" d="M114.618 2426.84C94.6931 2435.26 83.7446 2427.58 81.7729 2403.78C104.409 2397.26 115.358 2404.94 114.618 2426.84Z" fill="#B96E80"/>
<path id="Vector_138" d="M114.618 2426.84L84.2754 2405.54M102.731 2418.49L90.8919 2421.39M95.5367 2413.44L93.8589 2403.86" stroke="#F6F3E8" stroke-width="0.9"/>
</g>
<path id="Vector_139" d="M3.19452 2431.88L-18.616 2444.81" stroke="#6F7D49" stroke-width="1.1"/>
<path id="Vector_140" d="M-100 3227.22C144 3336.22 417.6 3310.22 705.6 3340.22" stroke="#6F7D49" stroke-width="2" stroke-linecap="round"/>
<g id="Group_46">
<path id="Vector_141" d="M-35.9469 3271.05C3.00592 3268.2 17.2636 3287.69 6.82618 3329.52C-35.6572 3327.54 -49.9149 3308.05 -35.9469 3271.05Z" fill="#173D32"/>
<path id="Vector_142" d="M-35.9469 3271.05L3.56727 3325.07M-20.4672 3292.21L1.45346 3294.13M-11.0978 3305.02L-13.7898 3322.38" stroke="#F6F3E8" stroke-width="0.9"/>
</g>
<path id="Vector_143" d="M32.0077 3273.4L46.082 3289.07" stroke="#6F7D49" stroke-width="1.1"/>
<g id="Group_47">
<path id="Vector_144" d="M46.082 3289.07C72.1758 3284.5 83.1225 3296.69 78.922 3325.63C50.1177 3327.18 39.171 3314.99 46.082 3289.07Z" fill="#6F7D49"/>
<path id="Vector_145" d="M46.082 3289.07L76.42 3322.84M57.967 3302.3L72.8904 3302.11M65.1605 3310.31L64.5237 3322.2" stroke="#F6F3E8" stroke-width="0.9"/>
</g>
<path id="Vector_146" d="M88.3125 3286.64L100.369 3281.89" stroke="#6F7D49" stroke-width="1.1"/>
<g id="Group_48">
<path id="Vector_147" d="M100.369 3281.89C103.335 3265.86 112.712 3262.16 128.5 3270.8C123.212 3287.74 113.835 3291.44 100.369 3281.89Z" fill="#6F7D49"/>
<path id="Vector_148" d="M100.369 3281.89L126.357 3271.64M110.55 3277.87L113.64 3269.23M116.712 3275.44L123.436 3278.36" stroke="#F6F3E8" stroke-width="0.9"/>
</g>
<path id="Vector_149" d="M120.417 3292.84L135.723 3307.3" stroke="#6F7D49" stroke-width="1.1"/>
<g id="Group_49">
<path id="Vector_150" d="M135.723 3307.3C161.357 3300.62 173.261 3311.87 171.436 3341.06C142.854 3344.95 130.95 3333.7 135.723 3307.3Z" fill="#6F7D49"/>
<path id="Vector_151" d="M135.723 3307.3L168.715 3338.48M148.648 3319.52L163.505 3318.11M156.47 3326.91L156.806 3338.82" stroke="#F6F3E8" stroke-width="0.9"/>
</g>
<path id="Vector_152" d="M210.812 3306.01L220.76 3314.31" stroke="#6F7D49" stroke-width="1.1"/>
<g id="Group_50">
<path id="Vector_153" d="M220.76 3314.31C236.253 3309.24 243.99 3315.7 243.972 3333.7C226.564 3337.17 218.827 3330.71 220.76 3314.31Z" fill="#6F7D49"/>
<path id="Vector_154" d="M220.76 3314.31L242.204 3332.22M229.161 3321.33L238.233 3319.9M234.245 3325.57L234.902 3332.88" stroke="#F6F3E8" stroke-width="0.9"/>
</g>
<path id="Vector_155" d="M269.601 3311.95L288.153 3301.98" stroke="#6F7D49" stroke-width="1.1"/>
<g id="Group_51">
<path id="Vector_156" d="M288.153 3301.98C289.891 3275.55 304.321 3267.8 331.443 3278.73C326.132 3307.08 311.702 3314.83 288.153 3301.98Z" fill="#B96E80"/>
<path id="Vector_157" d="M288.153 3301.98L328.144 3280.5M303.82 3293.56L307.162 3279.02M313.302 3288.47L324.71 3291.9" stroke="#F6F3E8" stroke-width="0.9"/>
</g>
<path id="Vector_158" d="M303.056 3314.65L319.764 3327.47" stroke="#6F7D49" stroke-width="1.1"/>
<g id="Group_52">
<path id="Vector_159" d="M319.764 3327.47C344.578 3318.19 357.573 3328.16 358.75 3357.38C330.718 3364.19 317.723 3354.22 319.764 3327.47Z" fill="#6F7D49"/>
<path id="Vector_160" d="M319.764 3327.47L355.78 3355.1M333.873 3338.29L348.508 3335.36M342.413 3344.85L343.968 3356.66" stroke="#F6F3E8" stroke-width="0.9"/>
</g>
<path id="Vector_161" d="M362.954 3318.59L374.191 3312.13" stroke="#6F7D49" stroke-width="1.1"/>
<g id="Group_53">
<path id="Vector_162" d="M374.191 3312.13C374.794 3295.84 383.534 3290.82 400.41 3297.07C397.642 3314.6 388.903 3319.62 374.191 3312.13Z" fill="#6F7D49"/>
<path id="Vector_163" d="M374.191 3312.13L398.412 3298.22M383.68 3306.68L385.479 3297.68M389.423 3303.38L396.5 3305.29" stroke="#F6F3E8" stroke-width="0.9"/>
</g>
<path id="Vector_164" d="M397.01 3320.48L422.048 3338.84" stroke="#6F7D49" stroke-width="1.1"/>
<g id="Group_54">
<path id="Vector_165" d="M422.048 3338.84C458.327 3324.38 477.801 3338.66 480.47 3381.69C439.369 3392.62 419.895 3378.34 422.048 3338.84Z" fill="#173D32"/>
<path id="Vector_166" d="M422.048 3338.84L476.019 3378.43M443.191 3354.35L464.669 3349.57M455.988 3363.74L458.658 3381.1" stroke="#F6F3E8" stroke-width="0.9"/>
</g>
<path id="Vector_167" d="M457.93 3323.54L476.088 3312.87" stroke="#6F7D49" stroke-width="1.1"/>
<g id="Group_55">
<path id="Vector_168" d="M476.088 3312.87C476.813 3286.39 490.935 3278.09 518.455 3287.97C514.234 3316.51 500.111 3324.81 476.088 3312.87Z" fill="#6F7D49"/>
<path id="Vector_169" d="M476.088 3312.87L515.228 3289.87M491.421 3303.86L494.204 3289.2M500.701 3298.41L512.232 3301.4" stroke="#F6F3E8" stroke-width="0.9"/>
</g>
<path id="Vector_170" d="M492.537 3325.24L503.011 3332.87" stroke="#6F7D49" stroke-width="1.1"/>
<g id="Group_56">
<path id="Vector_171" d="M503.011 3332.87C518.136 3326.79 526.282 3332.72 527.45 3350.68C510.309 3355.29 502.163 3349.36 503.011 3332.87Z" fill="#6F7D49"/>
<path id="Vector_172" d="M503.011 3332.87L525.588 3349.32M511.856 3339.32L520.815 3337.29M517.209 3343.22L518.346 3350.46" stroke="#F6F3E8" stroke-width="0.9"/>
</g>
<path id="Vector_173" d="M554.392 3328.51L572.639 3318" stroke="#6F7D49" stroke-width="1.1"/>
<g id="Group_57">
<path id="Vector_174" d="M572.639 3318C573.587 3291.52 587.779 3283.34 615.215 3293.46C610.753 3321.96 596.561 3330.14 572.639 3318Z" fill="#6F7D49"/>
<path id="Vector_175" d="M572.639 3318L611.971 3295.33M588.048 3309.12L590.955 3294.48M597.374 3303.74L608.879 3306.84" stroke="#F6F3E8" stroke-width="0.9"/>
</g>
<path id="Vector_176" d="M589.501 3330.65L606.336 3343.3" stroke="#6F7D49" stroke-width="1.1"/>
<g id="Group_58">
<path id="Vector_177" d="M606.336 3343.3C631.056 3333.78 644.15 3343.62 645.618 3372.82C617.655 3379.91 604.561 3370.07 606.336 3343.3Z" fill="#B96E80"/>
<path id="Vector_178" d="M606.336 3343.3L642.625 3370.57M620.552 3353.98L635.157 3350.91M629.157 3360.45L630.829 3372.25" stroke="#F6F3E8" stroke-width="0.9"/>
</g>
<path id="Vector_179" d="M652.202 3335.24L679.494 3320.44" stroke="#6F7D49" stroke-width="1.1"/>
<g id="Group_59">
<path id="Vector_180" d="M679.494 3320.44C681.897 3281.45 703.124 3269.94 743.177 3285.89C735.519 3327.72 714.291 3339.24 679.494 3320.44Z" fill="#173D32"/>
<path id="Vector_181" d="M679.494 3320.44L738.325 3288.52M702.542 3307.93L707.382 3286.47M716.491 3300.37L733.331 3305.36" stroke="#F6F3E8" stroke-width="0.9"/>
</g>
<path id="Vector_182" d="M-100 4008.22C388.8 4053.22 1080 3998.22 1530 3798.22" stroke="#6F7D49" stroke-width="2" stroke-linecap="round"/>
<path id="Vector_183" d="M108.474 4020.89L123.154 4011.92" stroke="#6F7D49" stroke-width="1.1"/>
<g id="Group_60">
<path id="Vector_184" d="M123.154 4011.92C123.382 3990.29 134.8 3983.32 157.408 3991.02C154.352 4014.37 142.934 4021.34 123.154 4011.92Z" fill="#6F7D49"/>
<path id="Vector_185" d="M123.154 4011.92L154.798 3992.61M135.551 4004.36L137.622 3992.35M143.054 3999.78L152.51 4002.06" stroke="#F6F3E8" stroke-width="0.9"/>
</g>
<path id="Vector_186" d="M297.619 4022.52L306.39 4016.6" stroke="#6F7D49" stroke-width="1.1"/>
<g id="Group_61">
<path id="Vector_187" d="M306.39 4016.6C305.921 4003.29 312.743 3998.68 326.858 4002.78C325.638 4017.22 318.816 4021.83 306.39 4016.6Z" fill="#6F7D49"/>
<path id="Vector_188" d="M306.39 4016.6L325.298 4003.83M313.798 4011.59L314.732 4004.15M318.281 4008.57L324.159 4009.71" stroke="#F6F3E8" stroke-width="0.9"/>
</g>
<path id="Vector_189" d="M367.779 4020.98L382.441 4029.97" stroke="#6F7D49" stroke-width="1.1"/>
<g id="Group_62">
<path id="Vector_190" d="M382.441 4029.97C401.805 4020.32 413.209 4027.31 416.654 4050.94C394.466 4058.86 383.062 4051.87 382.441 4029.97Z" fill="#6F7D49"/>
<path id="Vector_191" d="M382.441 4029.97L414.047 4049.34M394.823 4037.56L406.46 4033.93M402.317 4042.15L404.587 4051.61" stroke="#F6F3E8" stroke-width="0.9"/>
</g>
<path id="Vector_192" d="M493.982 4015.38L514.341 4000.26" stroke="#6F7D49" stroke-width="1.1"/>
<g id="Group_63">
<path id="Vector_193" d="M514.341 4000.26C511.79 3968.46 527.625 3956.71 561.846 3964.99C560.476 3999.69 544.641 4011.45 514.341 4000.26Z" fill="#173D32"/>
<path id="Vector_194" d="M514.341 4000.26L558.227 3967.68M531.533 3987.49L532.972 3969.58M541.939 3979.77L556.129 3981.87" stroke="#F6F3E8" stroke-width="0.9"/>
</g>
<path id="Vector_195" d="M565.76 4010.57L575.023 4015.69" stroke="#6F7D49" stroke-width="1.1"/>
<g id="Group_64">
<path id="Vector_196" d="M575.023 4015.69C586.66 4009.22 593.864 4013.2 596.637 4027.64C583.216 4033.12 576.011 4029.14 575.023 4015.69Z" fill="#6F7D49"/>
<path id="Vector_197" d="M575.023 4015.69L594.99 4026.73M582.845 4020.01L589.898 4017.46M587.579 4022.63L589.237 4028.38" stroke="#F6F3E8" stroke-width="0.9"/>
</g>
<path id="Vector_198" d="M693.55 3999.05L706.87 3988.17" stroke="#6F7D49" stroke-width="1.1"/>
<g id="Group_65">
<path id="Vector_199" d="M706.87 3988.17C704.143 3966.71 714.503 3958.24 737.949 3962.78C738.11 3986.34 727.751 3994.8 706.87 3988.17Z" fill="#B96E80"/>
<path id="Vector_200" d="M706.87 3988.17L735.581 3964.71M718.118 3978.98L718.53 3966.8M724.925 3973.42L734.606 3974.39" stroke="#F6F3E8" stroke-width="0.9"/>
</g>
<path id="Vector_201" d="M765.5 3990.83L780.93 3998.43" stroke="#6F7D49" stroke-width="1.1"/>
<g id="Group_66">
<path id="Vector_202" d="M780.93 3998.43C799.32 3987.03 811.322 3992.94 816.934 4016.15C795.573 4026.09 783.571 4020.18 780.93 3998.43Z" fill="#6F7D49"/>
<path id="Vector_203" d="M780.93 3998.43L814.191 4014.8M793.96 4004.84L805.213 4000.16M801.847 4008.73L804.98 4017.94" stroke="#F6F3E8" stroke-width="0.9"/>
</g>
<path id="Vector_204" d="M892.312 3973.13L900.161 3966.03" stroke="#6F7D49" stroke-width="1.1"/>
<g id="Group_67">
<path id="Vector_205" d="M900.161 3966.03C897.821 3952.92 903.926 3947.4 918.476 3949.46C919.305 3963.94 913.2 3969.46 900.161 3966.03Z" fill="#6F7D49"/>
<path id="Vector_206" d="M900.161 3966.03L917.081 3950.73M906.79 3960.03L906.666 3952.53M910.801 3956.41L916.781 3956.71" stroke="#F6F3E8" stroke-width="0.9"/>
</g>
<path id="Vector_207" d="M962.986 3961.36L986.292 3971.35" stroke="#6F7D49" stroke-width="1.1"/>
<g id="Group_68">
<path id="Vector_208" d="M986.292 3971.35C1012.49 3953.15 1030.61 3960.92 1040.67 3994.66C1009.99 4010.94 991.863 4003.17 986.292 3971.35Z" fill="#173D32"/>
<path id="Vector_209" d="M986.292 3971.35L1036.53 3992.89M1005.97 3979.79L1022.18 3972.02M1017.88 3984.89L1023.21 3998.21" stroke="#F6F3E8" stroke-width="0.9"/>
</g>
<path id="Vector_210" d="M1086.25 3937.21L1098.33 3924.97" stroke="#6F7D49" stroke-width="1.1"/>
<g id="Group_69">
<path id="Vector_211" d="M1098.33 3924.97C1093.31 3903.92 1102.7 3894.39 1126.5 3896.39C1129.19 3919.79 1119.8 3929.32 1098.33 3924.97Z" fill="#6F7D49"/>
<path id="Vector_212" d="M1098.33 3924.97L1124.35 3898.56M1108.52 3914.62L1107.62 3902.47M1114.69 3908.36L1124.42 3908.29" stroke="#F6F3E8" stroke-width="0.9"/>
</g>
<path id="Vector_213" d="M1154.21 3921.74L1164.17 3925.31" stroke="#6F7D49" stroke-width="1.1"/>
<g id="Group_70">
<path id="Vector_214" d="M1164.17 3925.31C1174.62 3917.07 1182.37 3919.85 1187.41 3933.65C1175.04 3941.21 1167.29 3938.43 1164.17 3925.31Z" fill="#6F7D49"/>
<path id="Vector_215" d="M1164.17 3925.31L1185.64 3933.02M1172.58 3928.33L1179.14 3924.68M1177.67 3930.16L1180.23 3935.57" stroke="#F6F3E8" stroke-width="0.9"/>
</g>
<path id="Vector_216" d="M1271.36 3890.89L1282.58 3877.85" stroke="#6F7D49" stroke-width="1.1"/>
<g id="Group_71">
<path id="Vector_217" d="M1282.58 3877.85C1276.15 3857.2 1284.87 3847.06 1308.75 3847.43C1313.02 3870.6 1304.29 3880.74 1282.58 3877.85Z" fill="#6F7D49"/>
<path id="Vector_218" d="M1282.58 3877.85L1306.75 3849.75M1292.05 3866.84L1290.33 3854.78M1297.78 3860.18L1307.48 3859.45" stroke="#F6F3E8" stroke-width="0.9"/>
</g>
<path id="Vector_219" d="M1335.15 3871.57L1351.72 3876.18" stroke="#6F7D49" stroke-width="1.1"/>
<g id="Group_72">
<path id="Vector_220" d="M1351.72 3876.18C1367.68 3861.58 1380.57 3865.17 1390.38 3886.95C1371.22 3900.65 1358.33 3897.07 1351.72 3876.18Z" fill="#B96E80"/>
<path id="Vector_221" d="M1351.72 3876.18L1387.43 3886.13M1365.71 3880.08L1375.9 3873.39M1374.18 3882.43L1378.96 3890.91" stroke="#F6F3E8" stroke-width="0.9"/>
</g>
<g id="Group_73">
<path id="Vector_222" d="M1458.5 3813.22C1446.51 3783.67 1458.07 3767.69 1493.2 3765.3C1502.33 3798.81 1490.76 3814.79 1458.5 3813.22Z" fill="#173D32"/>
</g>
<path id="Vector_223" d="M-100 4716.78C388.8 4678.77 964.8 4682.99 1530 4936.22" stroke="#6F7D49" stroke-width="2" stroke-linecap="round"/>
<path id="Vector_224" d="M-8.10097 4710.25L13.9547 4722.76" stroke="#6F7D49" stroke-width="1.1"/>
<g id="Group_74">
<path id="Vector_225" d="M13.9547 4722.76C42.0046 4707.58 59.159 4717.31 65.4179 4751.95C33.1202 4764.73 15.9658 4755 13.9547 4722.76Z" fill="#173D32"/>
<path id="Vector_226" d="M13.9547 4722.76L61.4969 4749.73M32.5795 4733.33L49.5452 4727.4M43.8524 4739.72L47.6698 4753.55" stroke="#F6F3E8" stroke-width="0.9"/>
</g>
<path id="Vector_227" d="M103.001 4704.18L116.953 4694.12" stroke="#6F7D49" stroke-width="1.1"/>
<g id="Group_75">
<path id="Vector_228" d="M116.953 4694.12C115.526 4672.54 126.377 4664.71 149.507 4670.66C148.247 4694.18 137.395 4702 116.953 4694.12Z" fill="#6F7D49"/>
<path id="Vector_229" d="M116.953 4694.12L147.026 4672.44M128.734 4685.63L129.881 4673.5M135.865 4680.49L145.469 4682.05" stroke="#F6F3E8" stroke-width="0.9"/>
</g>
<path id="Vector_230" d="M166.688 4701.73L181.371 4710.69" stroke="#6F7D49" stroke-width="1.1"/>
<g id="Group_76">
<path id="Vector_231" d="M181.371 4710.69C200.714 4701 212.133 4707.96 215.629 4731.59C193.459 4739.55 182.039 4732.58 181.371 4710.69Z" fill="#6F7D49"/>
<path id="Vector_232" d="M181.371 4710.69L213.019 4729.99M193.769 4718.25L205.398 4714.6M201.273 4722.83L203.563 4732.28" stroke="#F6F3E8" stroke-width="0.9"/>
</g>
<path id="Vector_233" d="M281.419 4699.42L290.228 4693.55" stroke="#6F7D49" stroke-width="1.1"/>
<g id="Group_77">
<path id="Vector_234" d="M290.228 4693.55C289.842 4680.25 296.694 4675.68 310.782 4679.86C309.471 4694.3 302.62 4698.87 290.228 4693.55Z" fill="#6F7D49"/>
<path id="Vector_235" d="M290.228 4693.55L309.216 4680.91M297.667 4688.6L298.649 4681.16M302.169 4685.6L308.039 4686.78" stroke="#F6F3E8" stroke-width="0.9"/>
</g>
<path id="Vector_236" d="M346.991 4699.42L361.304 4708.96" stroke="#6F7D49" stroke-width="1.1"/>
<g id="Group_78">
<path id="Vector_237" d="M361.304 4708.96C381.018 4700.05 392.15 4707.47 394.699 4731.22C372.228 4738.29 361.096 4730.87 361.304 4708.96Z" fill="#6F7D49"/>
<path id="Vector_238" d="M361.304 4708.96L392.155 4729.52M373.39 4717.02L385.155 4713.83M380.705 4721.89L382.615 4731.43" stroke="#F6F3E8" stroke-width="0.9"/>
</g>
<path id="Vector_239" d="M464.783 4702.07L486.501 4688.98" stroke="#6F7D49" stroke-width="1.1"/>
<g id="Group_79">
<path id="Vector_240" d="M486.501 4688.98C487.017 4657.09 503.909 4646.91 537.176 4658.44C532.477 4692.85 515.585 4703.03 486.501 4688.98Z" fill="#173D32"/>
<path id="Vector_241" d="M486.501 4688.98L533.315 4660.77M504.84 4677.93L507.994 4660.24M515.941 4671.24L529.864 4674.69" stroke="#F6F3E8" stroke-width="0.9"/>
</g>
<path id="Vector_242" d="M531.921 4705.2L540.437 4711.49" stroke="#6F7D49" stroke-width="1.1"/>
<g id="Group_80">
<path id="Vector_243" d="M540.437 4711.49C552.818 4706.6 559.441 4711.48 560.307 4726.15C546.285 4729.84 539.662 4724.95 540.437 4711.49Z" fill="#6F7D49"/>
<path id="Vector_244" d="M540.437 4711.49L558.793 4725.04M547.628 4716.8L554.954 4715.19M551.98 4720.01L552.873 4725.93" stroke="#F6F3E8" stroke-width="0.9"/>
</g>
<path id="Vector_245" d="M652.207 4714L667.387 4705.92" stroke="#6F7D49" stroke-width="1.1"/>
<g id="Group_81">
<path id="Vector_246" d="M667.387 4705.92C668.884 4684.34 680.691 4678.05 702.809 4687.05C698.388 4710.19 686.581 4716.48 667.387 4705.92Z" fill="#B96E80"/>
<path id="Vector_247" d="M667.387 4705.92L700.11 4688.49M680.206 4699.09L682.979 4687.22M687.965 4694.96L697.271 4697.8" stroke="#F6F3E8" stroke-width="0.9"/>
</g>
<path id="Vector_248" d="M720.591 4720.94L733.837 4731.91" stroke="#6F7D49" stroke-width="1.1"/>
<g id="Group_82">
<path id="Vector_249" d="M733.837 4731.91C754.37 4725.09 764.672 4733.63 764.745 4757.51C741.662 4762.21 731.359 4753.68 733.837 4731.91Z" fill="#6F7D49"/>
<path id="Vector_250" d="M733.837 4731.91L762.39 4755.56M745.023 4741.17L757.055 4739.23M751.793 4746.78L752.704 4756.47" stroke="#F6F3E8" stroke-width="0.9"/>
</g>
<path id="Vector_251" d="M842.804 4737.08L852.431 4732.69" stroke="#6F7D49" stroke-width="1.1"/>
<g id="Group_83">
<path id="Vector_252" d="M852.431 4732.69C854.157 4719.48 861.645 4716.06 874.893 4722.42C871.313 4736.47 863.826 4739.89 852.431 4732.69Z" fill="#6F7D49"/>
<path id="Vector_253" d="M852.431 4732.69L873.182 4723.21M860.56 4728.97L862.707 4721.78M865.481 4726.72L871.091 4728.82" stroke="#F6F3E8" stroke-width="0.9"/>
</g>
<path id="Vector_254" d="M912.115 4748.5L930.579 4765.88" stroke="#6F7D49" stroke-width="1.1"/>
<g id="Group_84">
<path id="Vector_255" d="M930.579 4765.88C961.428 4757.77 975.789 4771.29 973.662 4806.43C939.258 4811.2 924.897 4797.68 930.579 4765.88Z" fill="#173D32"/>
<path id="Vector_256" d="M930.579 4765.88L970.38 4803.34M946.171 4780.56L964.057 4778.82M955.608 4789.44L956.042 4803.78" stroke="#F6F3E8" stroke-width="0.9"/>
</g>
<path id="Vector_257" d="M1035.69 4773.19L1051.78 4767.12" stroke="#6F7D49" stroke-width="1.1"/>
<g id="Group_85">
<path id="Vector_258" d="M1051.78 4767.12C1056.04 4745.91 1068.56 4741.2 1089.34 4752.97C1081.98 4775.35 1069.46 4780.07 1051.78 4767.12Z" fill="#6F7D49"/>
<path id="Vector_259" d="M1051.78 4767.12L1086.47 4754.05M1065.37 4762L1069.65 4750.59M1073.6 4758.9L1082.46 4762.91" stroke="#F6F3E8" stroke-width="0.9"/>
</g>
<path id="Vector_260" d="M1105.61 4789.76L1112.78 4797.54" stroke="#6F7D49" stroke-width="1.1"/>
<g id="Group_86">
<path id="Vector_261" d="M1112.78 4797.54C1125.86 4795.07 1131.44 4801.12 1129.52 4815.69C1115.06 4816.66 1109.48 4810.61 1112.78 4797.54Z" fill="#6F7D49"/>
<path id="Vector_262" d="M1112.78 4797.54L1128.25 4814.31M1118.84 4804.11L1126.34 4803.91M1122.51 4808.08L1122.27 4814.07" stroke="#F6F3E8" stroke-width="0.9"/>
</g>
<path id="Vector_263" d="M1229.97 4824.18L1246.48 4819.34" stroke="#6F7D49" stroke-width="1.1"/>
<g id="Group_87">
<path id="Vector_264" d="M1246.48 4819.34C1252.31 4798.51 1265.15 4794.74 1284.98 4808.04C1275.97 4829.81 1263.13 4833.57 1246.48 4819.34Z" fill="#6F7D49"/>
<path id="Vector_265" d="M1246.48 4819.34L1282.05 4808.9M1260.41 4815.25L1265.53 4804.19M1268.85 4812.78L1277.39 4817.44" stroke="#F6F3E8" stroke-width="0.9"/>
</g>
<path id="Vector_266" d="M1300.18 4846.58L1310.83 4860.08" stroke="#6F7D49" stroke-width="1.1"/>
<g id="Group_88">
<path id="Vector_267" d="M1310.83 4860.08C1332.33 4857.73 1340.62 4868.23 1335.68 4891.6C1312.12 4891.35 1303.84 4880.85 1310.83 4860.08Z" fill="#B96E80"/>
<path id="Vector_268" d="M1310.83 4860.08L1333.78 4889.2M1319.82 4871.49L1331.99 4872.11M1325.26 4878.39L1324.12 4888.05" stroke="#F6F3E8" stroke-width="0.9"/>
</g>
<path id="Vector_269" d="M1424.77 4891.94L1449.6 4886.79" stroke="#6F7D49" stroke-width="1.1"/>
<path id="Vector_270" d="M1540 5501.22C1296 5414.22 1022.4 5354.22 763.2 5394.22" stroke="#6F7D49" stroke-width="2" stroke-linecap="round"/>
<g id="Group_89">
<path id="Vector_271" d="M1475.1 5460.95C1436.27 5465.13 1421.35 5446.14 1430.35 5403.98C1472.87 5404.5 1487.79 5423.49 1475.1 5460.95Z" fill="#173D32"/>
<path id="Vector_272" d="M1475.1 5460.95L1433.76 5408.32M1458.91 5440.33L1436.93 5439.17M1449.1 5427.85L1451.2 5410.41" stroke="#F6F3E8" stroke-width="0.9"/>
</g>
<path id="Vector_273" d="M1439.42 5467.56L1419.17 5473.34" stroke="#6F7D49" stroke-width="1.1"/>
<g id="Group_90">
<path id="Vector_274" d="M1419.17 5473.34C1411.82 5498.79 1396.07 5503.28 1371.91 5486.81C1383.15 5460.24 1398.91 5455.75 1419.17 5473.34Z" fill="#6F7D49"/>
<path id="Vector_275" d="M1419.17 5473.34L1375.51 5485.78M1402.06 5478.21L1395.69 5491.71M1391.71 5481.16L1381.3 5475.37" stroke="#F6F3E8" stroke-width="0.9"/>
</g>
<path id="Vector_276" d="M1408.15 5458.04L1394.55 5441.96" stroke="#6F7D49" stroke-width="1.1"/>
<g id="Group_91">
<path id="Vector_277" d="M1394.55 5441.96C1368.33 5445.75 1357.75 5433.24 1362.82 5404.44C1391.66 5403.75 1402.23 5416.26 1394.55 5441.96Z" fill="#6F7D49"/>
<path id="Vector_278" d="M1394.55 5441.96L1365.24 5407.3M1383.07 5428.38L1368.14 5428.13M1376.12 5420.17L1377.11 5408.29" stroke="#F6F3E8" stroke-width="0.9"/>
</g>
<path id="Vector_279" d="M1352.14 5442.18L1339.82 5446.22" stroke="#6F7D49" stroke-width="1.1"/>
<g id="Group_92">
<path id="Vector_280" d="M1339.82 5446.22C1335.92 5462.04 1326.35 5465.19 1311.09 5455.64C1317.36 5439.04 1326.94 5435.89 1339.82 5446.22Z" fill="#6F7D49"/>
<path id="Vector_281" d="M1339.82 5446.22L1313.28 5454.92M1329.42 5449.63L1325.83 5458.08M1323.13 5451.69L1316.59 5448.38" stroke="#F6F3E8" stroke-width="0.9"/>
</g>
<path id="Vector_282" d="M1320.3 5433.86L1306.04 5418.36" stroke="#6F7D49" stroke-width="1.1"/>
<g id="Group_93">
<path id="Vector_283" d="M1306.04 5418.36C1280 5423.22 1268.92 5411.16 1272.79 5382.18C1301.58 5380.3 1312.66 5392.36 1306.04 5418.36Z" fill="#6F7D49"/>
<path id="Vector_284" d="M1306.04 5418.36L1275.32 5384.94M1294.01 5405.27L1279.09 5405.63M1286.72 5397.34L1287.23 5385.44" stroke="#F6F3E8" stroke-width="0.9"/>
</g>
<path id="Vector_285" d="M1263.39 5420.36L1234.35 5431.35" stroke="#6F7D49" stroke-width="1.1"/>
<g id="Group_94">
<path id="Vector_286" d="M1234.35 5431.34C1226.71 5469.65 1204.12 5478.19 1166.59 5456.99C1179.82 5416.57 1202.41 5408.02 1234.35 5431.34Z" fill="#173D32"/>
<path id="Vector_287" d="M1234.35 5431.35L1171.75 5455.03M1209.83 5440.63L1202.13 5461.24M1194.98 5446.24L1178.97 5439.02" stroke="#F6F3E8" stroke-width="0.9"/>
</g>
<path id="Vector_288" d="M1231.12 5413.49L1221.91 5404.37" stroke="#6F7D49" stroke-width="1.1"/>
<g id="Group_95">
<path id="Vector_289" d="M1221.91 5404.37C1206.04 5408.11 1198.88 5401.02 1200.42 5383.09C1218.06 5381.11 1225.23 5388.2 1221.91 5404.37Z" fill="#6F7D49"/>
<path id="Vector_290" d="M1221.91 5404.37L1202.06 5384.71M1214.13 5396.67L1204.97 5397.33M1209.43 5392.01L1209.39 5384.68" stroke="#F6F3E8" stroke-width="0.9"/>
</g>
<path id="Vector_291" d="M1173.57 5402.77L1154.28 5411.21" stroke="#6F7D49" stroke-width="1.1"/>
<g id="Group_96">
<path id="Vector_292" d="M1154.28 5411.21C1150.42 5437.42 1135.42 5443.98 1109.26 5430.91C1116.83 5403.08 1131.84 5396.51 1154.28 5411.21Z" fill="#B96E80"/>
<path id="Vector_293" d="M1154.28 5411.21L1112.69 5429.41M1137.99 5418.34L1133.48 5432.57M1128.12 5422.65L1117.03 5418.31" stroke="#F6F3E8" stroke-width="0.9"/>
</g>
<path id="Vector_294" d="M1141.01 5397.59L1125.28 5383.58" stroke="#6F7D49" stroke-width="1.1"/>
<g id="Group_97">
<path id="Vector_295" d="M1125.28 5383.58C1099.86 5391.02 1087.63 5380.13 1088.59 5350.9C1117.04 5346.16 1129.27 5357.06 1125.28 5383.58Z" fill="#6F7D49"/>
<path id="Vector_296" d="M1125.28 5383.58L1091.38 5353.39M1112 5371.76L1097.19 5373.61M1103.96 5364.6L1103.28 5352.7" stroke="#F6F3E8" stroke-width="0.9"/>
</g>
<path id="Vector_297" d="M1083.08 5390.07L1071.53 5395.94" stroke="#6F7D49" stroke-width="1.1"/>
<g id="Group_98">
<path id="Vector_298" d="M1071.53 5395.94C1070.08 5412.17 1061.09 5416.74 1044.56 5409.63C1048.23 5392.26 1057.22 5387.69 1071.53 5395.94Z" fill="#6F7D49"/>
<path id="Vector_299" d="M1071.53 5395.94L1046.62 5408.58M1061.77 5400.89L1059.5 5409.79M1055.86 5403.89L1048.89 5401.61" stroke="#F6F3E8" stroke-width="0.9"/>
</g>
<path id="Vector_300" d="M1050.38 5386.82L1026 5367.59" stroke="#6F7D49" stroke-width="1.1"/>
<g id="Group_99">
<path id="Vector_301" d="M1026 5367.59C989.233 5380.78 970.27 5365.82 969.109 5322.72C1010.57 5313.24 1029.53 5328.19 1026 5367.59Z" fill="#173D32"/>
<path id="Vector_302" d="M1026 5367.59L973.443 5326.14M1005.41 5351.35L983.776 5355.38M992.947 5341.52L990.887 5324.08" stroke="#F6F3E8" stroke-width="0.9"/>
</g>
<path id="Vector_303" d="M992.319 5382.92L974.194 5393.64" stroke="#6F7D49" stroke-width="1.1"/>
<g id="Group_100">
<path id="Vector_304" d="M974.194 5393.64C973.55 5420.13 959.453 5428.47 931.903 5418.67C936.038 5390.12 950.135 5381.78 974.194 5393.64Z" fill="#6F7D49"/>
<path id="Vector_305" d="M974.194 5393.64L935.125 5416.76M958.889 5402.7L956.15 5417.37M949.625 5408.18L938.085 5405.22" stroke="#F6F3E8" stroke-width="0.9"/>
</g>
<path id="Vector_306" d="M959.612 5381.83L948.921 5374.51" stroke="#6F7D49" stroke-width="1.1"/>
<g id="Group_101">
<path id="Vector_307" d="M948.921 5374.51C933.98 5381.03 925.664 5375.33 923.973 5357.42C940.973 5352.31 949.289 5358 948.921 5374.51Z" fill="#6F7D49"/>
<path id="Vector_308" d="M948.921 5374.51L925.874 5358.72M939.892 5368.32L930.996 5370.61M934.427 5364.58L933.08 5357.37" stroke="#F6F3E8" stroke-width="0.9"/>
</g>
<path id="Vector_309" d="M901.682 5381.98L884.377 5393.99" stroke="#6F7D49" stroke-width="1.1"/>
<g id="Group_102">
<path id="Vector_310" d="M884.377 5393.99C885.643 5420.45 872.183 5429.78 843.998 5421.99C846.065 5393.22 859.525 5383.88 884.377 5393.99Z" fill="#6F7D49"/>
<path id="Vector_311" d="M884.377 5393.99L847.075 5419.86M869.764 5404.12L868.089 5418.95M860.919 5410.26L849.196 5408.13" stroke="#F6F3E8" stroke-width="0.9"/>
</g>
<path id="Vector_312" d="M869.117 5383.3L850.9 5372.73" stroke="#6F7D49" stroke-width="1.1"/>
<g id="Group_103">
<path id="Vector_313" d="M850.9 5372.73C827.484 5385.12 813.315 5376.9 808.394 5348.07C835.319 5337.72 849.488 5345.94 850.9 5372.73Z" fill="#B96E80"/>
<path id="Vector_314" d="M850.9 5372.73L811.633 5349.95M835.517 5363.81L821.38 5368.59M826.206 5358.4L823.147 5346.89" stroke="#F6F3E8" stroke-width="0.9"/>
</g>
<path id="Vector_315" d="M811.567 5387.92L787.55 5407.6" stroke="#6F7D49" stroke-width="1.1"/>
<g id="Group_104">
<path id="Vector_316" d="M787.55 5407.6C792.532 5446.34 773.853 5461.64 731.512 5453.52C731.156 5410.99 749.836 5395.68 787.55 5407.6Z" fill="#173D32"/>
<path id="Vector_317" d="M787.55 5407.6L735.782 5450.02M767.27 5424.22L766.559 5446.21M754.995 5434.28L737.516 5432.54" stroke="#F6F3E8" stroke-width="0.9"/>
</g>
</g>
<defs>
<clipPath id="clip0_39_1913">
<rect width="1440" height="6188.22" fill="white"/>
</clipPath>
</defs>
</svg>

